<svg width="32" height="32" viewBox="0 0 32 32" fill="none" xmlns="http://www.w3.org/2000/svg">
<rect width="32" height="32" rx="16" fill="#F7F7F7"/>
<path d="M24.999 20.667C24.997 21.06 24.897 21.447 24.711 21.79L19.025 15.194L24.649 10.094C24.877 10.464 24.999 10.894 25 11.333L24.999 20.667ZM15.999 16.392L23.82 9.294C23.4952 9.10397 23.1263 9.00259 22.75 9H9.25C8.87377 9.00278 8.50483 9.10415 8.18 9.294L16 16.392M18.18 15.968L16.37 17.612C16.2688 17.7041 16.1368 17.7551 16 17.7551C15.8632 17.7551 15.7312 17.7041 15.63 17.612L13.82 15.968L8.064 22.64C8.41593 22.8728 8.82807 22.9979 9.25 23H22.75C23.168 23 23.58 22.875 23.935 22.641L18.18 15.968ZM7.35 10.094C7.123 10.465 7.001 10.894 7 11.334V20.669C7.002 21.063 7.102 21.449 7.288 21.792L12.97 15.196L7.351 10.094" fill="#393939"/>
</svg>
