<svg width="32" height="32" viewBox="0 0 32 32" fill="none" xmlns="http://www.w3.org/2000/svg">
<rect width="32" height="32" rx="16" fill="#F7F7F7"/>
<g clip-path="url(#clip0_26_3350)">
<path fill-rule="evenodd" clip-rule="evenodd" d="M20.6755 7.00669H18.2478C17.6433 6.97165 17.0382 7.063 16.471 7.27491C15.9039 7.48682 15.3871 7.81464 14.9538 8.23744C14.5314 8.6495 14.2054 9.14976 13.9988 9.70246C13.7923 10.2552 13.7104 10.8467 13.759 11.4347V13.4766H11.3189C11.2697 13.4757 11.2208 13.4845 11.175 13.5025C11.1292 13.5205 11.0874 13.5473 11.052 13.5815C11.0166 13.6157 10.9882 13.6565 10.9686 13.7016C10.9489 13.7467 10.9384 13.7952 10.9375 13.8444V16.8021C10.9375 17.0046 11.1085 17.1688 11.32 17.1688H13.759V24.6332C13.759 24.8357 13.93 24.9999 14.1415 24.9999H17.3219C17.5334 24.9999 17.7044 24.8357 17.7044 24.6332V17.1688H20.5563C20.7666 17.1688 20.9388 17.0046 20.9388 16.8021V13.8433C20.9377 13.7941 20.927 13.7456 20.9072 13.7005C20.8875 13.6555 20.859 13.6148 20.8235 13.5807C20.788 13.5466 20.7461 13.5199 20.7002 13.502C20.6544 13.4842 20.6054 13.4755 20.5563 13.4766H17.71V11.7452C17.71 10.9127 17.917 10.4919 19.0442 10.4919H20.68C20.7793 10.4934 20.8751 10.4556 20.9466 10.3867C21.018 10.3177 21.0593 10.2233 21.0614 10.1241V7.37344C21.0613 7.32458 21.0513 7.27624 21.032 7.23137C21.0126 7.1865 20.9844 7.14603 20.9489 7.11244C20.8749 7.04302 20.7769 7.00509 20.6755 7.00669Z" fill="#393939"/>
</g>
<defs>
<clipPath id="clip0_26_3350">
<rect width="18" height="18" fill="white" transform="translate(7 7)"/>
</clipPath>
</defs>
</svg>
