<svg width="32" height="32" viewBox="0 0 32 32" fill="none" xmlns="http://www.w3.org/2000/svg">
<rect width="32" height="32" rx="16" fill="#F7F7F7"/>
<g clip-path="url(#clip0_26_3366)">
<path d="M25 17.9197V24.4706H21.1406V18.3559C21.1406 16.8185 20.5847 15.7745 19.1881 15.7745C18.7558 15.7755 18.3343 15.9091 17.9803 16.1573C17.6264 16.4056 17.3573 16.7565 17.2092 17.1626C17.1088 17.4612 17.064 17.7755 17.0768 18.0902V24.4706H13.2206C13.2206 24.4706 13.2725 14.1164 13.2206 13.0459H17.0758V14.6649C17.0758 14.6776 17.0588 14.6892 17.0546 14.703H17.0758V14.6649C17.4293 14.0635 17.9398 13.5707 18.5525 13.2372C19.1652 12.9037 19.8571 12.7432 20.554 12.7728C23.0994 12.777 25 14.4076 25 17.9197ZM9.18543 7.53688C8.81821 7.50448 8.44912 7.57308 8.11806 7.73525C7.787 7.89742 7.50657 8.14699 7.30707 8.45699C7.11036 8.76436 7.00362 9.12067 6.99894 9.48557C6.99426 9.85047 7.09183 10.2094 7.2806 10.5217C7.66602 11.1602 8.38178 11.5329 9.13355 11.4873H9.1579C9.52676 11.5203 9.89759 11.4513 10.2299 11.2879C10.5623 11.1246 10.8434 10.8731 11.0426 10.5609C11.2397 10.2515 11.3457 9.89297 11.3487 9.52619C11.3517 9.15941 11.2515 8.79918 11.0595 8.48664C10.8641 8.17184 10.586 7.91677 10.2555 7.74928C9.925 7.58179 9.55484 7.50832 9.18543 7.53688ZM7.22872 24.4706H11.0903V13.0449H7.22766V24.4706" fill="#393939"/>
</g>
<defs>
<clipPath id="clip0_26_3366">
<rect width="18" height="18" fill="white" transform="translate(7 7)"/>
</clipPath>
</defs>
</svg>
