<svg width="32" height="32" viewBox="0 0 32 32" fill="none" xmlns="http://www.w3.org/2000/svg">
<rect width="32" height="32" rx="16" fill="#F7F7F7"/>
<g clip-path="url(#clip0_26_3374)">
<path fill-rule="evenodd" clip-rule="evenodd" d="M8.8 8.47363H23.2C24.1881 8.4869 24.9867 9.2969 25 10.3011V20.3489C24.9867 21.3531 24.1881 22.1631 23.2 22.1764H14.632L11.7217 25.4268C11.6813 25.4719 11.628 25.5036 11.5691 25.5177C11.5102 25.5317 11.4484 25.5274 11.392 25.5054C11.3351 25.4828 11.2864 25.4436 11.2521 25.3929C11.2178 25.3422 11.1995 25.2824 11.1997 25.2212V22.1764H8.8C7.81189 22.1631 7.01326 21.3522 7 20.3489V10.3021C7.01326 9.2969 7.81189 8.4869 8.8 8.47363Z" fill="#393939"/>
</g>
<defs>
<clipPath id="clip0_26_3374">
<rect width="18" height="18" fill="white" transform="translate(7 8)"/>
</clipPath>
</defs>
</svg>
