<svg width="32" height="32" viewBox="0 0 32 32" fill="none" xmlns="http://www.w3.org/2000/svg">
<rect width="32" height="32" rx="16" fill="#F7F7F7"/>
<g clip-path="url(#clip0_26_3362)">
<path d="M25 15.4474C24.9982 14.2243 23.9956 13.2334 22.759 13.2325C22.2734 13.2312 21.8006 13.3885 21.4126 13.6807C20.0259 12.787 18.4303 12.2702 16.783 12.1813L17.7208 10.0024L20.455 10.6333C20.5423 11.4334 21.2002 12.0553 22.012 12.1048C22.4034 12.1307 22.7915 12.0181 23.1081 11.7865C23.4247 11.555 23.6497 11.2193 23.7436 10.8385C23.8343 10.4579 23.7866 10.0574 23.6092 9.70873C23.4318 9.36002 23.1362 9.08576 22.7752 8.93496C22.4133 8.78133 22.0091 8.75923 21.6326 8.8725C21.2562 8.98577 20.9312 9.22725 20.7142 9.55506L17.5192 8.81346C17.3912 8.78386 17.2569 8.79985 17.1394 8.85867C17.022 8.91748 16.9287 9.01544 16.8757 9.13566L15.5797 12.1507C13.798 12.1783 12.0586 12.6975 10.5532 13.651C10.2174 13.4124 9.82287 13.2699 9.41211 13.239C9.00135 13.2081 8.58993 13.2898 8.2222 13.4755C7.85602 13.6589 7.54791 13.9404 7.33214 14.2885C7.11637 14.6366 7.00139 15.0378 7 15.4474C6.99979 15.839 7.10475 16.2235 7.30391 16.5607C7.50307 16.8979 7.78913 17.1755 8.1322 17.3644C8.1232 17.4616 8.1196 17.5624 8.1196 17.6623C8.1196 20.7205 11.6368 23.2 15.9604 23.2C20.2849 23.2 23.8012 20.716 23.8012 17.6623C23.8012 17.5768 23.8012 17.4913 23.7922 17.4058C24.1553 17.2235 24.4606 16.9437 24.6739 16.5979C24.8872 16.252 25.0001 15.8537 25 15.4474ZM22.1209 9.90966C22.4314 9.90966 22.6834 10.159 22.6834 10.4659C22.6834 10.7719 22.4314 11.0212 22.1209 11.0212C21.9728 11.0219 21.8305 10.9638 21.7252 10.8597C21.6199 10.7556 21.5603 10.6139 21.5593 10.4659C21.5593 10.159 21.8113 9.90966 22.1209 9.90966ZM12.0409 17.1088C12.0409 16.4941 12.5449 15.9964 13.1659 15.9964C13.7869 15.9964 14.29 16.495 14.29 17.1088C14.29 17.7226 13.786 18.2203 13.165 18.2203C12.544 18.2203 12.0409 17.7226 12.0409 17.1088ZM18.547 20.7826C17.7925 21.3224 16.8881 21.6126 15.9604 21.6126C15.0327 21.6126 14.1283 21.3224 13.3738 20.7826C13.2841 20.7304 13.2108 20.654 13.1623 20.5622C13.1139 20.4704 13.0921 20.3668 13.0996 20.2633C13.1071 20.1597 13.1436 20.0604 13.2048 19.9765C13.266 19.8927 13.3495 19.8277 13.4458 19.789C13.5427 19.7495 13.6486 19.7376 13.7519 19.7546C13.8551 19.7716 13.9517 19.8168 14.0308 19.8853C14.5936 20.288 15.2683 20.5046 15.9604 20.5046C16.6525 20.5046 17.3272 20.288 17.89 19.8853C17.9691 19.8168 18.0657 19.7716 18.1689 19.7546C18.2722 19.7376 18.3781 19.7495 18.475 19.789C18.5713 19.8277 18.6548 19.8927 18.716 19.9765C18.7772 20.0604 18.8137 20.1597 18.8212 20.2633C18.8287 20.3668 18.8069 20.4704 18.7585 20.5622C18.71 20.654 18.6367 20.7304 18.547 20.7826ZM18.7603 18.2167C18.5586 18.2252 18.3584 18.1794 18.1804 18.0841C18.0025 17.9888 17.8534 17.8474 17.7487 17.6749C17.645 17.5031 17.5902 17.3062 17.5902 17.1056C17.5902 16.905 17.645 16.7081 17.7487 16.5364C17.9602 16.1854 18.3481 15.9784 18.7603 15.9946C19.0469 16.0073 19.3176 16.1296 19.5164 16.3363C19.7153 16.5431 19.827 16.8183 19.8286 17.1052C19.8286 17.6974 19.3588 18.1861 18.7603 18.2158V18.2167Z" fill="#393939"/>
</g>
<defs>
<clipPath id="clip0_26_3362">
<rect width="18" height="18" fill="white" transform="translate(7 7)"/>
</clipPath>
</defs>
</svg>
