<svg width="32" height="32" viewBox="0 0 32 32" fill="none" xmlns="http://www.w3.org/2000/svg">
<rect width="32" height="32" rx="16" fill="#F7F7F7"/>
<g clip-path="url(#clip0_26_3378)">
<path d="M24.4463 20.2944C24.3725 20.05 24.0191 19.8778 24.0191 19.8778C23.9857 19.8602 23.9559 19.8444 23.9312 19.8321C23.3424 19.5473 22.8203 19.2045 22.3809 18.8161C22.0275 18.5032 21.7252 18.1586 21.4826 17.793C21.1855 17.3465 21.0467 16.9739 20.9869 16.7717C20.9535 16.6399 20.9588 16.5872 20.9869 16.5186C21.0098 16.4606 21.0783 16.4061 21.11 16.3797C21.3086 16.2391 21.6285 16.0317 21.8254 15.9051C21.9959 15.7944 22.1418 15.6995 22.2279 15.6397C22.5039 15.4463 22.6937 15.2495 22.8045 15.0368C22.9486 14.7625 22.9662 14.4602 22.8537 14.1631C22.7025 13.7624 22.3281 13.5233 21.8518 13.5233C21.7463 13.5233 21.6373 13.5356 21.5283 13.5584C21.2559 13.6182 20.9975 13.7149 20.7812 13.7993C20.7654 13.8063 20.7478 13.794 20.7496 13.7764C20.7725 13.2403 20.7988 12.5196 20.7391 11.8358C20.6863 11.217 20.558 10.695 20.3506 10.2397C20.1414 9.78267 19.8689 9.44517 19.6562 9.20083C19.4541 8.9688 19.0973 8.62603 18.5594 8.31841C17.8035 7.88599 16.9422 7.66626 16 7.66626C15.0596 7.66626 14.2 7.88599 13.4424 8.31841C12.8728 8.6436 12.509 9.01099 12.3437 9.20083C12.131 9.44517 11.8586 9.78267 11.6494 10.2397C11.4402 10.695 11.3137 11.2153 11.2609 11.8358C11.2012 12.5231 11.2258 13.1858 11.2504 13.7764C11.2504 13.794 11.2346 13.8063 11.217 13.7993C11.0008 13.7149 10.7424 13.6182 10.4699 13.5584C10.3627 13.5356 10.2537 13.5233 10.1465 13.5233C9.67187 13.5233 9.29745 13.7624 9.14452 14.1631C9.03202 14.4602 9.0496 14.7625 9.19374 15.0368C9.30624 15.2495 9.49433 15.4463 9.77031 15.6397C9.85468 15.6995 10.0023 15.7944 10.1728 15.9051C10.3644 16.0299 10.6756 16.2321 10.876 16.3709C10.9006 16.3885 10.985 16.4518 11.0113 16.5186C11.0394 16.5889 11.0447 16.6417 11.0078 16.7823C10.9463 16.9862 10.8074 17.3553 10.5156 17.793C10.273 18.1604 9.9707 18.5032 9.61738 18.8161C9.17792 19.2045 8.65585 19.5473 8.06698 19.8321C8.03886 19.8461 8.00546 19.862 7.97031 19.8831C7.97031 19.8831 7.61874 20.0624 7.55195 20.2944C7.45351 20.6372 7.71542 20.9588 7.98085 21.1311C8.41679 21.4124 8.94765 21.5635 9.25527 21.6461C9.3414 21.669 9.41874 21.6901 9.48906 21.7112C9.533 21.7252 9.64374 21.7674 9.6912 21.829C9.75097 21.9063 9.758 22.0012 9.77909 22.1084C9.81249 22.2895 9.88808 22.5127 10.1113 22.6674C10.3574 22.8362 10.6685 22.8485 11.0641 22.8643C11.4771 22.8801 11.9904 22.8995 12.5793 23.0946C12.8518 23.1842 13.0996 23.3372 13.3844 23.5129C13.982 23.8803 14.7256 24.3374 15.9947 24.3374C17.2656 24.3374 18.0144 23.8786 18.6156 23.5094C18.9004 23.3354 19.1447 23.1842 19.4119 23.0963C20.0008 22.9012 20.5141 22.8819 20.9271 22.8661C21.3226 22.8502 21.6338 22.8397 21.8799 22.6692C22.1189 22.504 22.1875 22.2579 22.2191 22.0733C22.2367 21.9819 22.2473 21.8993 22.3 21.8325C22.3457 21.7745 22.4476 21.734 22.4951 21.7182C22.5672 21.6954 22.648 21.6743 22.7377 21.6497C23.0453 21.567 23.432 21.4704 23.9014 21.2049C24.4674 20.8833 24.506 20.4895 24.4463 20.2944Z" fill="white"/>
<path d="M24.9349 20.1045C24.8101 19.7635 24.5711 19.5825 24.3003 19.4313C24.2494 19.4014 24.2019 19.3768 24.1632 19.3592C24.0824 19.317 23.9998 19.2766 23.9171 19.2344C23.0716 18.7862 22.4107 18.2202 21.9537 17.5504C21.799 17.3237 21.6918 17.1198 21.6162 16.9528C21.5775 16.8403 21.5793 16.777 21.6074 16.719C21.6285 16.675 21.6847 16.6293 21.7164 16.6065C21.8623 16.5098 22.0117 16.4131 22.1136 16.3481C22.2947 16.2303 22.4388 16.1372 22.5302 16.0739C22.8783 15.8313 23.1209 15.5729 23.272 15.2846C23.4865 14.8786 23.5128 14.4145 23.3476 13.9786C23.1191 13.3739 22.5461 12.9977 21.8535 12.9977C21.7093 12.9977 21.5634 13.0135 21.4193 13.0452C21.3806 13.054 21.3437 13.0627 21.3068 13.0715C21.3138 12.6602 21.3033 12.2208 21.2664 11.7918C21.1363 10.2801 20.6072 9.48735 20.0552 8.8563C19.825 8.59263 19.4242 8.20767 18.823 7.86313C17.9845 7.38149 17.0353 7.13892 16 7.13892C14.9681 7.13892 14.0189 7.38149 13.1804 7.86138C12.5757 8.20591 12.175 8.59263 11.9464 8.85454C11.3945 9.4856 10.8654 10.2784 10.7353 11.7901C10.6984 12.219 10.6896 12.6584 10.6949 13.0698C10.658 13.061 10.6193 13.0522 10.5824 13.0434C10.4382 13.0118 10.2906 12.9959 10.1482 12.9959C9.45562 12.9959 8.88257 13.3721 8.65406 13.9768C8.48882 14.4127 8.51519 14.8768 8.72964 15.2829C8.88082 15.5711 9.12515 15.8295 9.47144 16.0721C9.5646 16.1372 9.70699 16.2303 9.88804 16.3463C9.98648 16.4096 10.1289 16.5028 10.2695 16.5959C10.2906 16.61 10.3662 16.6663 10.3925 16.719C10.4224 16.7788 10.4224 16.8438 10.3785 16.9633C10.3046 17.1268 10.1974 17.3272 10.0462 17.5487C9.598 18.2043 8.9564 18.7598 8.13902 19.2028C7.70484 19.4331 7.25484 19.586 7.065 20.1028C6.92085 20.493 7.01578 20.9377 7.37964 21.3122C7.49917 21.4405 7.65035 21.5547 7.84019 21.6602C8.28667 21.9063 8.66636 22.0276 8.96519 22.1102C9.01792 22.126 9.13921 22.1647 9.19195 22.2122C9.32554 22.3282 9.30621 22.504 9.48375 22.7606C9.59097 22.9206 9.71402 23.0295 9.81597 23.0999C10.1869 23.3565 10.6052 23.3723 11.0482 23.3899C11.4472 23.4057 11.9007 23.4233 12.4175 23.5938C12.632 23.6641 12.8552 23.8012 13.1119 23.9594C13.7306 24.3409 14.5796 24.8612 15.9982 24.8612C17.4185 24.8612 18.271 24.3374 18.8951 23.9559C19.1517 23.7995 19.3732 23.6624 19.5806 23.5938C20.0974 23.4233 20.5509 23.4057 20.95 23.3899C21.3929 23.3723 21.8095 23.3565 22.1822 23.0999C22.2982 23.019 22.4459 22.8872 22.5619 22.6868C22.6884 22.4706 22.6867 22.3176 22.8062 22.2139C22.8554 22.1717 22.9627 22.1348 23.0207 22.1172C23.3212 22.0346 23.7062 21.9133 24.1615 21.662C24.3636 21.5512 24.5201 21.4299 24.6449 21.2911L24.6502 21.2858C24.9894 20.9166 25.0755 20.486 24.9349 20.1045ZM23.6746 20.7813C22.9046 21.2067 22.3931 21.161 21.9959 21.4159C21.6584 21.6338 21.857 22.1032 21.6127 22.2719C21.3103 22.4811 20.4191 22.2579 19.2677 22.6375C18.3185 22.9522 17.7121 23.854 16.0017 23.854C14.2878 23.854 13.699 22.9557 12.7357 22.6375C11.5843 22.2579 10.6914 22.4811 10.3908 22.2719C10.1464 22.1032 10.3451 21.6338 10.0076 21.4159C9.61031 21.1592 9.09878 21.2049 8.32886 20.7813C7.83843 20.5106 8.11617 20.3436 8.27964 20.2645C11.0675 18.9163 11.5105 16.8315 11.5316 16.675C11.5562 16.4887 11.5826 16.3411 11.3769 16.1495C11.1783 15.9649 10.2941 15.4182 10.0498 15.2477C9.64371 14.9647 9.46617 14.6817 9.598 14.3336C9.68941 14.0928 9.91441 14.0032 10.1517 14.0032C10.2255 14.0032 10.3011 14.012 10.3732 14.0278C10.8179 14.1245 11.2503 14.3477 11.5 14.4075C11.5351 14.4163 11.565 14.4198 11.5914 14.4198C11.725 14.4198 11.7707 14.353 11.7619 14.2C11.7337 13.7131 11.6634 12.7639 11.7408 11.8762C11.8462 10.6563 12.24 10.0516 12.7076 9.51548C12.9326 9.25884 13.9873 8.14438 16.0035 8.14438C18.025 8.14438 19.0744 9.25884 19.2994 9.51548C19.7669 10.0499 20.1607 10.6545 20.2662 11.8762C20.3435 12.7639 20.2767 13.7131 20.2451 14.2C20.2345 14.36 20.2837 14.4198 20.4156 14.4198C20.4419 14.4198 20.4736 14.4163 20.507 14.4075C20.7566 14.3477 21.189 14.1245 21.6337 14.0278C21.7058 14.012 21.7814 14.0032 21.8552 14.0032C22.0925 14.0032 22.3175 14.0946 22.4089 14.3336C22.5408 14.6817 22.3615 14.9647 21.9572 15.2477C21.7128 15.4182 20.8287 15.9649 20.63 16.1495C20.4244 16.3393 20.4507 16.487 20.4753 16.675C20.4947 16.8315 20.9394 18.9163 23.7273 20.2645C23.8855 20.3436 24.165 20.5106 23.6746 20.7813Z" fill="black"/>
</g>
<defs>
<clipPath id="clip0_26_3378">
<rect width="18" height="18" fill="white" transform="translate(7 7)"/>
</clipPath>
</defs>
</svg>
