<svg width="32" height="32" viewBox="0 0 32 32" fill="none" xmlns="http://www.w3.org/2000/svg">
<rect width="32" height="32" rx="16" fill="#F7F7F7"/>
<g clip-path="url(#clip0_26_3358)">
<path d="M16.0024 7C14.3434 6.99839 12.7163 7.45565 11.301 8.3212C9.88567 9.18676 8.73733 10.4269 7.98295 11.9044C7.22857 13.382 6.89754 15.0394 7.02647 16.6934C7.1554 18.3474 7.73927 19.9334 8.7135 21.2763L7.5885 24.6209L11.0479 23.515C12.6151 24.5484 14.4663 25.0658 16.3422 24.9947C18.2181 24.9236 20.0248 24.2677 21.5094 23.1187C22.994 21.9696 24.082 20.3851 24.6212 18.587C25.1604 16.7888 25.1237 14.867 24.5164 13.0908C23.9096 11.3145 22.7626 9.77233 21.236 8.68019C19.7094 7.58806 17.8794 7.00059 16.0024 7ZM21.2415 19.7125C21.0595 20.0418 20.8067 20.3266 20.5012 20.5462C20.1958 20.7659 19.8453 20.9149 19.4752 20.9826C19.005 21.0828 18.3919 21.1626 16.3252 20.3054C14.5008 19.4134 12.9511 18.0452 11.8399 16.3454C11.2274 15.5632 10.8546 14.6203 10.7666 13.6308C10.755 13.2211 10.831 12.8138 10.9898 12.436C11.1485 12.0582 11.3862 11.7187 11.6869 11.4404C11.9422 11.2176 12.2741 11.1029 12.6116 11.1198C12.7241 11.1198 12.8242 11.1198 12.9131 11.131C13.1786 11.1423 13.3102 11.158 13.4857 11.5754C13.7017 12.0985 14.2316 13.39 14.2935 13.5239C14.3835 13.6701 14.3981 13.8513 14.3317 14.011C14.2573 14.1636 14.1585 14.303 14.0392 14.4239C13.9065 14.5769 13.7805 14.6939 13.6477 14.8581C13.5296 15.001 13.389 15.154 13.542 15.4184C13.9386 16.0902 14.4313 16.7004 15.0045 17.2296C15.6193 17.794 16.3354 18.2368 17.115 18.5346C17.2184 18.5839 17.3343 18.6008 17.4475 18.5831C17.5607 18.5655 17.666 18.5141 17.7495 18.4356C18.0015 18.1375 18.2366 17.827 18.456 17.5041C18.5202 17.3973 18.6218 17.318 18.7412 17.2819C18.8605 17.2457 18.989 17.2551 19.1017 17.3084C19.3447 17.3939 20.6318 18.0284 20.8961 18.1611C21.1594 18.2928 21.3349 18.3569 21.3979 18.4683C21.4654 18.889 21.4114 19.321 21.2415 19.7125Z" fill="#393939"/>
</g>
<defs>
<clipPath id="clip0_26_3358">
<rect width="18" height="18" fill="white" transform="translate(7 7)"/>
</clipPath>
</defs>
</svg>
